<svg>
    <symbol viewBox="0 0 24 24">
        <svg id="filter" width="24" height="24" viewBox="0 0 24 24" xmlns="http://www.w3.org/2000/svg">
            <path fill-rule="evenodd" clip-rule="evenodd" d="M1.0929 2.57912C1.25675 2.22596 1.61069 2 2.00001 2H22C22.3893 2 22.7433 2.22596 22.9071 2.57912C23.071 2.93229 23.015 3.34845 22.7636 3.64573L15 12.8261V21C15 21.3466 14.8206 21.6684 14.5257 21.8507C14.2309 22.0329 13.8628 22.0494 13.5528 21.8944L9.5528 19.8944C9.21402 19.725 9.00001 19.3788 9.00001 19V12.8261L1.23644 3.64573C0.985046 3.34845 0.929037 2.93229 1.0929 2.57912ZM4.15532 4L10.7636 11.8143C10.9162 11.9948 11 12.2236 11 12.46V18.382L13 19.382V12.46C13 12.2236 13.0838 11.9948 13.2364 11.8143L19.8447 4H4.15532Z"/>
        </svg>
    </symbol>
    <symbol viewBox="0 0 24 24">
        <svg id="arrow" width="24" height="24" viewBox="0 0 24 24" xmlns="http://www.w3.org/2000/svg">
            <path fill-rule="evenodd" clip-rule="evenodd" d="M4 12C4 11.4477 4.44772 11 5 11H19C19.5523 11 20 11.4477 20 12C20 12.5523 19.5523 13 19 13H5C4.44772 13 4 12.5523 4 12Z"/>
            <path fill-rule="evenodd" clip-rule="evenodd" d="M12.7071 4.29289C13.0976 4.68342 13.0976 5.31658 12.7071 5.70711L6.41421 12L12.7071 18.2929C13.0976 18.6834 13.0976 19.3166 12.7071 19.7071C12.3166 20.0976 11.6834 20.0976 11.2929 19.7071L4.29289 12.7071C3.90237 12.3166 3.90237 11.6834 4.29289 11.2929L11.2929 4.29289C11.6834 3.90237 12.3166 3.90237 12.7071 4.29289Z"/>
        </svg>
    </symbol>
    <symbol viewBox="0 0 24 24">
        <svg id="compare" width="24" height="24" viewBox="0 0 24 24" xmlns="http://www.w3.org/2000/svg">
            <path fill-rule="evenodd" clip-rule="evenodd" d="M19.0001 7C19.4169 7 19.79 7.25857 19.9364 7.64888L22.9364 15.6489C23.0926 16.0653 22.9549 16.5349 22.5986 16.8011C21.5568 17.5795 20.2971 18 19.0001 18C17.703 18 16.4433 17.5795 15.4015 16.8011C15.0452 16.5349 14.9076 16.0653 15.0637 15.6489L18.0637 7.64888C18.2101 7.25857 18.5832 7 19.0001 7ZM17.2243 15.5835C17.7753 15.8566 18.3819 16 19.0001 16C19.6183 16 20.2248 15.8566 20.7759 15.5835L19.0001 10.848L17.2243 15.5835Z"/>
            <path fill-rule="evenodd" clip-rule="evenodd" d="M5.00007 7C5.41692 7 5.79004 7.25857 5.9364 7.64888L8.9364 15.6489C9.09257 16.0653 8.95491 16.5349 8.5986 16.8011C7.5568 17.5795 6.2971 18 5.00007 18C3.70304 18 2.44334 17.5795 1.40155 16.8011C1.04523 16.5349 0.90757 16.0653 1.06374 15.6489L4.06374 7.64888C4.21011 7.25857 4.58323 7 5.00007 7ZM3.22427 15.5835C3.7753 15.8566 4.38187 16 5.00007 16C5.61827 16 6.22484 15.8566 6.77587 15.5835L5.00007 10.848L3.22427 15.5835Z"/>
            <path fill-rule="evenodd" clip-rule="evenodd" d="M6.00007 21C6.00007 20.4477 6.44779 20 7.00007 20H17.0001C17.5524 20 18.0001 20.4477 18.0001 21C18.0001 21.5523 17.5524 22 17.0001 22H7.00007C6.44779 22 6.00007 21.5523 6.00007 21Z"/>
            <path fill-rule="evenodd" clip-rule="evenodd" d="M12.0001 2C12.5524 2 13.0001 2.44772 13.0001 3V21C13.0001 21.5523 12.5524 22 12.0001 22C11.4478 22 11.0001 21.5523 11.0001 21V3C11.0001 2.44772 11.4478 2 12.0001 2Z"/>
            <path fill-rule="evenodd" clip-rule="evenodd" d="M11.5529 4.10557C11.8344 3.96481 12.1658 3.96481 12.4473 4.10557C14.3907 5.07727 17.2266 6 19.0001 6H21.0001C21.5524 6 22.0001 6.44772 22.0001 7C22.0001 7.55228 21.5524 8 21.0001 8H19.0001C16.9293 8 14.0476 7.06819 12.0001 6.11059C9.95255 7.06819 7.07087 8 5.00007 8H3.00007C2.44779 8 2.00007 7.55228 2.00007 7C2.00007 6.44772 2.44779 6 3.00007 6H5.00007C6.77349 6 9.60946 5.07727 11.5529 4.10557Z"/>
        </svg>
    </symbol>
    <symbol viewBox="0 0 24 24">
        <svg id="phone" width="24" height="24" viewBox="0 0 24 24" xmlns="http://www.w3.org/2000/svg">
            <path d="M21.9999 16.92V19.92C22.0011 20.1985 21.944 20.4741 21.8324 20.7293C21.7209 20.9845 21.5572 21.2136 21.352 21.4018C21.1468 21.5901 20.9045 21.7335 20.6407 21.8227C20.3769 21.9119 20.0973 21.945 19.8199 21.92C16.7428 21.5856 13.7869 20.5341 11.1899 18.85C8.77376 17.3146 6.72527 15.2661 5.18993 12.85C3.49991 10.2412 2.44818 7.27097 2.11993 4.17997C2.09494 3.90344 2.12781 3.62474 2.21643 3.3616C2.30506 3.09846 2.4475 2.85666 2.6347 2.6516C2.82189 2.44653 3.04974 2.28268 3.30372 2.1705C3.55771 2.05831 3.83227 2.00024 4.10993 1.99997H7.10993C7.59524 1.9952 8.06572 2.16705 8.43369 2.48351C8.80166 2.79996 9.04201 3.23942 9.10993 3.71997C9.23656 4.68004 9.47138 5.6227 9.80993 6.52997C9.94448 6.8879 9.9736 7.27689 9.89384 7.65086C9.81408 8.02482 9.6288 8.36809 9.35993 8.63998L8.08993 9.90997C9.51349 12.4135 11.5864 14.4864 14.0899 15.91L15.3599 14.64C15.6318 14.3711 15.9751 14.1858 16.3491 14.1061C16.723 14.0263 17.112 14.0554 17.4699 14.19C18.3772 14.5285 19.3199 14.7634 20.2799 14.89C20.7657 14.9585 21.2093 15.2032 21.5265 15.5775C21.8436 15.9518 22.0121 16.4296 21.9999 16.92Z" stroke-width="2" stroke-linecap="round" stroke-linejoin="round"/>
        </svg>
    </symbol>
    <symbol viewBox="0 0 24 24">
        <svg id="cart" width="24" height="24" viewBox="0 0 24 24" xmlns="http://www.w3.org/2000/svg">
            <path fill-rule="evenodd" clip-rule="evenodd" d="M5.2 1.4C5.38885 1.14819 5.68524 1 6 1H18C18.3148 1 18.6111 1.14819 18.8 1.4L21.8 5.4C21.9298 5.5731 22 5.78363 22 6V20C22 20.7957 21.6839 21.5587 21.1213 22.1213C20.5587 22.6839 19.7957 23 19 23H5C4.20435 23 3.44129 22.6839 2.87868 22.1213C2.31607 21.5587 2 20.7957 2 20V6C2 5.78363 2.07018 5.5731 2.2 5.4L5.2 1.4ZM6.5 3L4 6.33333V20C4 20.2652 4.10536 20.5196 4.29289 20.7071C4.48043 20.8946 4.73478 21 5 21H19C19.2652 21 19.5196 20.8946 19.7071 20.7071C19.8946 20.5196 20 20.2652 20 20V6.33333L17.5 3H6.5Z"/>
            <path fill-rule="evenodd" clip-rule="evenodd" d="M2 6C2 5.44772 2.44772 5 3 5H21C21.5523 5 22 5.44772 22 6C22 6.55228 21.5523 7 21 7H3C2.44772 7 2 6.55228 2 6Z"/>
            <path fill-rule="evenodd" clip-rule="evenodd" d="M8 9C8.55228 9 9 9.44772 9 10C9 10.7956 9.31607 11.5587 9.87868 12.1213C10.4413 12.6839 11.2044 13 12 13C12.7956 13 13.5587 12.6839 14.1213 12.1213C14.6839 11.5587 15 10.7956 15 10C15 9.44772 15.4477 9 16 9C16.5523 9 17 9.44772 17 10C17 11.3261 16.4732 12.5979 15.5355 13.5355C14.5979 14.4732 13.3261 15 12 15C10.6739 15 9.40215 14.4732 8.46447 13.5355C7.52678 12.5979 7 11.3261 7 10C7 9.44772 7.44772 9 8 9Z"/>
        </svg>
    </symbol>
    <symbol viewBox="0 0 24 24">
        <svg id="user" width="24" height="24" viewBox="0 0 24 24" xmlns="http://www.w3.org/2000/svg">
            <path fill-rule="evenodd" clip-rule="evenodd" d="M5.46447 15.4645C6.40215 14.5268 7.67392 14 9 14H15C16.3261 14 17.5979 14.5268 18.5355 15.4645C19.4732 16.4021 20 17.6739 20 19V21C20 21.5523 19.5523 22 19 22C18.4477 22 18 21.5523 18 21V19C18 18.2044 17.6839 17.4413 17.1213 16.8787C16.5587 16.3161 15.7956 16 15 16H9C8.20435 16 7.44129 16.3161 6.87868 16.8787C6.31607 17.4413 6 18.2044 6 19V21C6 21.5523 5.55228 22 5 22C4.44772 22 4 21.5523 4 21V19C4 17.6739 4.52678 16.4021 5.46447 15.4645Z"/>
            <path fill-rule="evenodd" clip-rule="evenodd" d="M12 4C10.3431 4 9 5.34315 9 7C9 8.65685 10.3431 10 12 10C13.6569 10 15 8.65685 15 7C15 5.34315 13.6569 4 12 4ZM7 7C7 4.23858 9.23858 2 12 2C14.7614 2 17 4.23858 17 7C17 9.76142 14.7614 12 12 12C9.23858 12 7 9.76142 7 7Z"/>
        </svg>
    </symbol>
    <symbol viewBox="0 0 24 24">
        <svg id="catalog" width="22" height="22" viewBox="0 0 22 22" xmlns="http://www.w3.org/2000/svg">
            <path fill-rule="evenodd" clip-rule="evenodd" d="M13.6957 10.4874C11.8196 10.4874 10.2987 12.0084 10.2987 13.8845C10.2987 15.7607 11.8196 17.2816 13.6957 17.2816C15.5719 17.2816 17.0928 15.7607 17.0928 13.8845C17.0928 12.0084 15.5719 10.4874 13.6957 10.4874ZM8.46533 13.8845C8.46533 10.9958 10.8071 8.65411 13.6957 8.65411C16.5844 8.65411 18.9261 10.9958 18.9261 13.8845C18.9261 16.7732 16.5844 19.1149 13.6957 19.1149C10.8071 19.1149 8.46533 16.7732 8.46533 13.8845Z"/>
            <path fill-rule="evenodd" clip-rule="evenodd" d="M0.916504 4.17893C0.916504 3.67267 1.32691 3.26227 1.83317 3.26227H19.0881C19.5943 3.26227 20.0047 3.67267 20.0047 4.17893C20.0047 4.6852 19.5943 5.0956 19.0881 5.0956H1.83317C1.32691 5.0956 0.916504 4.6852 0.916504 4.17893ZM0.916504 10.6495C0.916504 10.1433 1.32691 9.73286 1.83317 9.73286H6.1469C6.65316 9.73286 7.06356 10.1433 7.06356 10.6495C7.06356 11.1558 6.65316 11.5662 6.1469 11.5662H1.83317C1.32691 11.5662 0.916504 11.1558 0.916504 10.6495ZM0.916504 17.1201C0.916504 16.6138 1.32691 16.2034 1.83317 16.2034H6.1469C6.65316 16.2034 7.06356 16.6138 7.06356 17.1201C7.06356 17.6264 6.65316 18.0368 6.1469 18.0368H1.83317C1.32691 18.0368 0.916504 17.6264 0.916504 17.1201ZM16.8222 17.0111C17.1802 16.6532 17.7606 16.6532 18.1186 17.0111L20.8147 19.7072C21.1727 20.0652 21.1727 20.6456 20.8147 21.0036C20.4567 21.3616 19.8763 21.3616 19.5183 21.0036L16.8222 18.3075C16.4643 17.9495 16.4643 17.3691 16.8222 17.0111Z"/>
        </svg>
    </symbol>
    <symbol viewBox="0 0 24 24">
        <svg id="actions" width="24" height="24" viewBox="0 0 24 24" xmlns="http://www.w3.org/2000/svg">
            <path d="M2 6C2 5.20888 2.2346 4.43552 2.67412 3.77772C3.11365 3.11992 3.73836 2.60723 4.46927 2.30448C5.20017 2.00173 6.00444 1.92252 6.78036 2.07686C7.55629 2.2312 8.26902 2.61216 8.82843 3.17157C9.38784 3.73098 9.7688 4.44372 9.92314 5.21964C10.0775 5.99556 9.99827 6.79983 9.69552 7.53074C9.39277 8.26164 8.88008 8.88635 8.22228 9.32588C7.56448 9.76541 6.79113 10 6 10C4.93913 10 3.92172 9.57857 3.17157 8.82843C2.42143 8.07828 2 7.06087 2 6ZM4 6C4 6.39556 4.1173 6.78224 4.33706 7.11114C4.55682 7.44004 4.86918 7.69639 5.23463 7.84776C5.60009 7.99914 6.00222 8.03874 6.39018 7.96157C6.77814 7.8844 7.13451 7.69392 7.41421 7.41422C7.69392 7.13451 7.8844 6.77814 7.96157 6.39018C8.03874 6.00222 7.99913 5.60009 7.84776 5.23463C7.69638 4.86918 7.44004 4.55683 7.11114 4.33706C6.78224 4.1173 6.39556 4 6 4C5.46957 4 4.96086 4.21072 4.58579 4.58579C4.21071 4.96086 4 5.46957 4 6Z"/>
            <path d="M15 18C15 17.2089 15.2346 16.4355 15.6741 15.7777C16.1136 15.1199 16.7384 14.6072 17.4693 14.3045C18.2002 14.0017 19.0044 13.9225 19.7804 14.0769C20.5563 14.2312 21.269 14.6122 21.8284 15.1716C22.3878 15.731 22.7688 16.4437 22.9231 17.2196C23.0775 17.9956 22.9983 18.7998 22.6955 19.5307C22.3928 20.2616 21.8801 20.8864 21.2223 21.3259C20.5645 21.7654 19.7911 22 19 22C17.9391 22 16.9217 21.5786 16.1716 20.8284C15.4214 20.0783 15 19.0609 15 18ZM17 18C17 18.3956 17.1173 18.7822 17.3371 19.1111C17.5568 19.44 17.8692 19.6964 18.2346 19.8478C18.6001 19.9991 19.0022 20.0387 19.3902 19.9616C19.7781 19.8844 20.1345 19.6939 20.4142 19.4142C20.6939 19.1345 20.8844 18.7781 20.9616 18.3902C21.0387 18.0022 20.9991 17.6001 20.8478 17.2346C20.6964 16.8692 20.44 16.5568 20.1111 16.3371C19.7822 16.1173 19.3956 16 19 16C18.4696 16 17.9609 16.2107 17.5858 16.5858C17.2107 16.9609 17 17.4696 17 18Z"/>
            <path d="M20.0315 2.08119C19.9095 2.1336 19.7991 2.20978 19.7069 2.30529L3.64357 19.8934C3.28342 20.2878 3.29718 20.8957 3.67482 21.2733C4.07743 21.6759 4.73464 21.661 5.11861 21.2406L21.1209 3.71929C21.2164 3.62704 21.2926 3.5167 21.345 3.39469C21.3974 3.27269 21.425 3.14147 21.4261 3.00869C21.4273 2.87591 21.402 2.74423 21.3517 2.62133C21.3014 2.49844 21.2272 2.38679 21.1333 2.29289C21.0394 2.199 20.9277 2.12475 20.8048 2.07447C20.6819 2.02419 20.5503 1.99888 20.4175 2.00004C20.2847 2.00119 20.1535 2.02878 20.0315 2.08119Z"/>
        </svg>
    </symbol>
    <symbol viewBox="0 0 24 24">
        <svg id="location" width="24" height="24" viewBox="0 0 24 24" xmlns="http://www.w3.org/2000/svg">
            <path fill-rule="evenodd" clip-rule="evenodd" d="M12 3C10.1435 3 8.36301 3.7375 7.05025 5.05025C5.7375 6.36301 5 8.14348 5 10C5 12.605 6.77047 15.3616 8.74741 17.5856C9.71242 18.6713 10.6805 19.5792 11.4085 20.2162C11.6312 20.411 11.8307 20.5799 12 20.7202C12.1693 20.5799 12.3688 20.411 12.5915 20.2162C13.3195 19.5792 14.2876 18.6713 15.2526 17.5856C17.2295 15.3616 19 12.605 19 10C19 8.14348 18.2625 6.36301 16.9497 5.05025C15.637 3.7375 13.8565 3 12 3ZM12 22C11.4 22.8 11.3998 22.7998 11.3995 22.7997L11.3989 22.7992L11.397 22.7978L11.3912 22.7933L11.3709 22.778C11.3537 22.7648 11.3291 22.746 11.2976 22.7216C11.2346 22.6728 11.1441 22.6017 11.0299 22.51C10.8016 22.3265 10.4782 22.0597 10.0915 21.7213C9.31946 21.0458 8.28758 20.0787 7.25259 18.9144C5.22953 16.6384 3 13.395 3 10C3 7.61305 3.94821 5.32387 5.63604 3.63604C7.32387 1.94821 9.61305 1 12 1C14.3869 1 16.6761 1.94821 18.364 3.63604C20.0518 5.32387 21 7.61305 21 10C21 13.395 18.7705 16.6384 16.7474 18.9144C15.7124 20.0787 14.6805 21.0458 13.9085 21.7213C13.5218 22.0597 13.1984 22.3265 12.9701 22.51C12.8559 22.6017 12.7654 22.6728 12.7024 22.7216C12.6709 22.746 12.6463 22.7648 12.6291 22.778L12.6088 22.7933L12.603 22.7978L12.6011 22.7992L12.6005 22.7997C12.6002 22.7998 12.6 22.8 12 22ZM12 22L12.6 22.8C12.2444 23.0667 11.7556 23.0667 11.4 22.8L12 22Z"/>
            <path fill-rule="evenodd" clip-rule="evenodd" d="M12 8C10.8954 8 10 8.89543 10 10C10 11.1046 10.8954 12 12 12C13.1046 12 14 11.1046 14 10C14 8.89543 13.1046 8 12 8ZM8 10C8 7.79086 9.79086 6 12 6C14.2091 6 16 7.79086 16 10C16 12.2091 14.2091 14 12 14C9.79086 14 8 12.2091 8 10Z"/>
        </svg>
    </symbol>
    <symbol viewBox="0 0 24 24">
        <svg id="telegram" width="24" height="24" viewBox="0 0 24 24" xmlns="http://www.w3.org/2000/svg">
            <g clip-path="url(#clip0_242_39602)">
                <path d="M12 0C5.376 0 0 5.376 0 12C0 18.624 5.376 24 12 24C18.624 24 24 18.624 24 12C24 5.376 18.624 0 12 0ZM17.568 8.16C17.388 10.056 16.608 14.664 16.212 16.788C16.044 17.688 15.708 17.988 15.396 18.024C14.7 18.084 14.172 17.568 13.5 17.124C12.444 16.428 11.844 15.996 10.824 15.324C9.636 14.544 10.404 14.112 11.088 13.416C11.268 13.236 14.34 10.44 14.4 10.188C14.4083 10.1498 14.4072 10.1102 14.3968 10.0726C14.3863 10.0349 14.3668 10.0004 14.34 9.972C14.268 9.912 14.172 9.936 14.088 9.948C13.98 9.972 12.3 11.088 9.024 13.296C8.544 13.62 8.112 13.788 7.728 13.776C7.296 13.764 6.48 13.536 5.868 13.332C5.112 13.092 4.524 12.96 4.572 12.54C4.596 12.324 4.896 12.108 5.46 11.88C8.964 10.356 11.292 9.348 12.456 8.868C15.792 7.476 16.476 7.236 16.932 7.236C17.028 7.236 17.256 7.26 17.4 7.38C17.52 7.476 17.556 7.608 17.568 7.704C17.556 7.776 17.58 7.992 17.568 8.16Z"/>
            </g>
            <defs>
                <clipPath id="clip0_242_39602">
                    <rect width="24" height="24"/>
                </clipPath>
            </defs>
        </svg>
    </symbol>
    <symbol viewBox="0 0 24 24">
        <svg id="whatsapp" width="24" height="24" viewBox="0 0 24 24" xmlns="http://www.w3.org/2000/svg">
            <path d="M3.00401 21L4.35601 16.032C3.46515 14.5049 2.99711 12.768 3.00001 11C3.00001 5.477 7.47701 1 13 1C18.523 1 23 5.477 23 11C23 16.523 18.523 21 13 21C11.2328 21.0029 9.49667 20.5352 7.97001 19.645L3.00401 21ZM9.39101 6.308C9.26188 6.31602 9.13569 6.35003 9.02001 6.408C8.91153 6.46943 8.81251 6.54622 8.72601 6.636C8.60601 6.749 8.53801 6.847 8.46501 6.942C8.09542 7.423 7.89662 8.01342 7.90001 8.62C7.90201 9.11 8.03001 9.587 8.23001 10.033C8.63901 10.935 9.31201 11.89 10.201 12.775C10.415 12.988 10.624 13.202 10.849 13.401C11.9524 14.3725 13.2673 15.073 14.689 15.447L15.258 15.534C15.443 15.544 15.628 15.53 15.814 15.521C16.1053 15.506 16.3896 15.4271 16.647 15.29C16.778 15.2225 16.9058 15.1491 17.03 15.07C17.03 15.07 17.073 15.042 17.155 14.98C17.29 14.88 17.373 14.809 17.485 14.692C17.568 14.606 17.64 14.505 17.695 14.39C17.773 14.227 17.851 13.916 17.883 13.657C17.907 13.459 17.9 13.351 17.897 13.284C17.893 13.177 17.804 13.066 17.707 13.019L17.125 12.758C17.125 12.758 16.255 12.379 15.724 12.137C15.668 12.1126 15.608 12.0987 15.547 12.096C15.4786 12.089 15.4095 12.0967 15.3443 12.1186C15.2791 12.1405 15.2193 12.1761 15.169 12.223V12.221C15.164 12.221 15.097 12.278 14.374 13.154C14.3325 13.2098 14.2754 13.2519 14.2098 13.2751C14.1443 13.2982 14.0733 13.3013 14.006 13.284C13.9409 13.2666 13.877 13.2445 13.815 13.218C13.691 13.166 13.648 13.146 13.563 13.109L13.558 13.107C12.9859 12.8572 12.4562 12.5198 11.988 12.107C11.862 11.997 11.745 11.877 11.625 11.761C11.2316 11.3842 10.8887 10.958 10.605 10.493L10.546 10.398C10.5036 10.3342 10.4694 10.2653 10.444 10.193C10.406 10.046 10.505 9.928 10.505 9.928C10.505 9.928 10.748 9.662 10.861 9.518C10.9551 9.39832 11.0429 9.27382 11.124 9.145C11.242 8.955 11.279 8.76 11.217 8.609C10.937 7.925 10.647 7.244 10.349 6.568C10.29 6.434 10.115 6.338 9.95601 6.319C9.90201 6.313 9.84801 6.307 9.79401 6.303C9.65972 6.29633 9.52515 6.29866 9.39101 6.308Z"/>
        </svg>
    </symbol>
    <symbol viewBox="0 0 24 24">
        <svg id="vk" width="24" height="24" viewBox="0 0 24 24" xmlns="http://www.w3.org/2000/svg">
            <g clip-path="url(#clip0_242_39600)">
                <path fill-rule="evenodd" clip-rule="evenodd" d="M23.45 5.948C23.616 5.402 23.45 5 22.655 5H20.03C19.362 5 19.054 5.347 18.887 5.73C18.887 5.73 17.552 8.926 15.661 11.002C15.049 11.604 14.771 11.795 14.437 11.795C14.27 11.795 14.019 11.604 14.019 11.057V5.948C14.019 5.292 13.835 5 13.279 5H9.151C8.734 5 8.483 5.304 8.483 5.593C8.483 6.214 9.429 6.358 9.526 8.106V11.904C9.526 12.737 9.373 12.888 9.039 12.888C8.149 12.888 5.984 9.677 4.699 6.003C4.45 5.288 4.198 5 3.527 5H0.9C0.15 5 0 5.347 0 5.73C0 6.412 0.89 9.8 4.145 14.281C6.315 17.341 9.37 19 12.153 19C13.822 19 14.028 18.632 14.028 17.997V15.684C14.028 14.947 14.186 14.8 14.715 14.8C15.105 14.8 15.772 14.992 17.33 16.467C19.11 18.216 19.403 19 20.405 19H23.03C23.78 19 24.156 18.632 23.94 17.904C23.702 17.18 22.852 16.129 21.725 14.882C21.113 14.172 20.195 13.407 19.916 13.024C19.527 12.533 19.638 12.314 19.916 11.877C19.916 11.877 23.116 7.451 23.449 5.948H23.45Z"/>
            </g>
            <defs>
                <clipPath id="clip0_242_39600">
                    <rect width="24" height="24"/>
                </clipPath>
            </defs>
        </svg>
    </symbol>
    <symbol viewBox="0 0 24 24">
        <svg id="chevron" width="24" height="24" viewBox="0 0 24 24" xmlns="http://www.w3.org/2000/svg">
            <path fill-rule="evenodd" clip-rule="evenodd" d="M15.7071 5.29289C16.0976 5.68342 16.0976 6.31658 15.7071 6.70711L10.4142 12L15.7071 17.2929C16.0976 17.6834 16.0976 18.3166 15.7071 18.7071C15.3166 19.0976 14.6834 19.0976 14.2929 18.7071L8.29289 12.7071C7.90237 12.3166 7.90237 11.6834 8.29289 11.2929L14.2929 5.29289C14.6834 4.90237 15.3166 4.90237 15.7071 5.29289Z"/>
        </svg>
    </symbol>
    <symbol viewBox="0 0 24 24">
        <svg id="plus" width="24" height="24" viewBox="0 0 24 24" xmlns="http://www.w3.org/2000/svg">
            <path fill-rule="evenodd" clip-rule="evenodd" d="M12 4C12.5523 4 13 4.44772 13 5V19C13 19.5523 12.5523 20 12 20C11.4477 20 11 19.5523 11 19V5C11 4.44772 11.4477 4 12 4Z"/>
            <path fill-rule="evenodd" clip-rule="evenodd" d="M4 12C4 11.4477 4.44772 11 5 11H19C19.5523 11 20 11.4477 20 12C20 12.5523 19.5523 13 19 13H5C4.44772 13 4 12.5523 4 12Z"/>
        </svg>
    </symbol>
    <symbol viewBox="0 0 24 24">
        <svg id="minus" width="24" height="24" viewBox="0 0 24 24" xmlns="http://www.w3.org/2000/svg">
            <path fill-rule="evenodd" clip-rule="evenodd" d="M4 12C4 11.4477 4.44772 11 5 11H19C19.5523 11 20 11.4477 20 12C20 12.5523 19.5523 13 19 13H5C4.44772 13 4 12.5523 4 12Z"/>
        </svg>
    </symbol>
</svg>