<svg width="65" height="62" viewBox="0 0 65 62" fill="none" xmlns="http://www.w3.org/2000/svg">
<path d="M49.4941 19.5295L49.527 33.5712C49.527 36.9053 48.409 39.7265 46.3045 41.7462C44.0356 43.8942 40.7145 45.0483 37.1303 44.9842C30.4223 44.8239 26.4106 40.528 26.4106 33.5712V21.1004H23.2539V33.5712C23.2539 36.9374 24.3719 39.7265 26.5422 41.8103C29.0412 44.1827 32.8556 45.4971 37.0974 45.433C43.3451 45.3047 50.0531 42.0989 50.0531 33.5392V19.4974H49.4941V19.5295Z" fill="#272736"/>
<path d="M37.3609 23.5368C37.3609 26.0374 35.5852 27.2236 31.7708 27.2236H26.9371V26.6465H31.0145C33.5794 26.6465 33.8424 26.0695 33.8424 23.5368C33.8424 21.3248 33.7109 20.0745 31.0145 20.0745H17.2368V26.6145H22.7611V27.1915H17.2368V43.9903H14.0801V19.5295H31.738C33.8424 19.5295 37.3609 20.0424 37.3609 23.5368Z" fill="#272736"/>
<path d="M45.3185 28.0892C45.3185 28.0892 34.9276 36.4245 31.7709 42.1309C31.7709 42.1309 40.419 42.8042 45.5158 36.168C45.5158 36.168 48.0477 33.2827 48.245 25.5245C48.245 25.5245 40.9451 24.9154 36.0456 28.4739C34.0069 29.9486 30.1596 32.8659 30.4556 42.163C30.4227 42.163 38.1501 31.2309 45.3185 28.0892Z" fill="#272736"/>
<path d="M32.1004 62.2959C14.4754 62.2959 0.138672 48.3183 0.138672 31.1348C0.138672 13.9513 14.4754 -0.0263062 32.1004 -0.0263062C49.7254 -0.0263062 64.0622 13.9513 64.0622 31.1348C64.0622 48.3183 49.7254 62.2959 32.1004 62.2959ZM32.1004 1.57663C15.3632 1.57663 1.78279 14.849 1.78279 31.1348C1.78279 47.4527 15.3961 60.693 32.1004 60.693C48.8376 60.693 62.418 47.4207 62.418 31.1348C62.418 14.8169 48.8376 1.57663 32.1004 1.57663Z" fill="#272736"/>
<path d="M32.2324 8.85397C33.3402 8.85397 34.2382 7.97843 34.2382 6.89839C34.2382 5.81835 33.3402 4.94281 32.2324 4.94281C31.1246 4.94281 30.2266 5.81835 30.2266 6.89839C30.2266 7.97843 31.1246 8.85397 32.2324 8.85397Z" fill="#272736"/>
<path d="M32.2324 57.2948C33.3402 57.2948 34.2382 56.4192 34.2382 55.3392C34.2382 54.2592 33.3402 53.3836 32.2324 53.3836C31.1246 53.3836 30.2266 54.2592 30.2266 55.3392C30.2266 56.4192 31.1246 57.2948 32.2324 57.2948Z" fill="#272736"/>
<path d="M32.1 55.4995C18.3223 55.4995 7.10938 44.5674 7.10938 31.1348C7.10938 17.7022 18.3223 6.77014 32.1 6.77014C45.8778 6.77014 57.0907 17.7022 57.0907 31.1348C57.0907 44.5674 45.8778 55.4995 32.1 55.4995ZM32.1 7.05867C18.4867 7.05867 7.40532 17.8625 7.40532 31.1348C7.40532 44.4071 18.4867 55.2109 32.1 55.2109C45.7134 55.2109 56.7948 44.4071 56.7948 31.1348C56.7619 17.8625 45.7134 7.05867 32.1 7.05867Z" fill="#272736"/>
</svg>
