<svg width="197" height="62" viewBox="0 0 197 62" fill="none" xmlns="http://www.w3.org/2000/svg">
<g clip-path="url(#clip0_234_36245)">
<path d="M90.9265 20.6837C92.6036 20.6837 93.9846 20.9722 95.0697 21.5813C96.1877 22.1904 97.0098 22.9278 97.5688 23.8254C98.1278 24.7231 98.3909 25.7169 98.3909 26.7748C98.3909 27.8328 98.0949 28.8266 97.5359 29.7242C96.9769 30.6219 96.1549 31.3592 95.0369 31.9683C93.9189 32.5775 92.5707 32.866 90.8937 32.866H84.2185V41.2654H81.292V20.7157H90.9265V20.6837ZM90.8279 31.8401C91.8801 31.8401 92.7351 31.5836 93.4256 31.1028C94.1161 30.5898 94.6423 29.9807 94.9711 29.2113C95.2999 28.4419 95.4972 27.6404 95.4972 26.7748C95.4972 25.9092 95.3328 25.0757 94.9711 24.3383C94.6094 23.5689 94.0833 22.9598 93.3927 22.4469C92.7022 21.9339 91.8473 21.7095 90.8279 21.7095H84.2185V31.8401H90.8279Z" fill="#272736"/>
<path d="M110.689 20.6837C112.169 20.6837 113.451 20.9401 114.471 21.421C115.523 21.9019 116.345 22.5431 116.937 23.3125C117.529 24.0819 117.89 24.9154 118.055 25.8451C118.219 26.7748 118.121 27.6725 117.825 28.5701C117.529 29.4357 117.003 30.2372 116.246 30.9425C115.49 31.6478 114.536 32.1607 113.353 32.5133L117.529 41.2654H116.411L112.3 32.7377C112.037 32.7698 111.774 32.8019 111.478 32.8339C111.182 32.866 110.919 32.866 110.623 32.866H103.915V41.2654H100.989V20.7157H110.689V20.6837ZM110.558 31.8401C111.61 31.8401 112.465 31.5836 113.155 31.1028C113.846 30.5898 114.372 29.9807 114.701 29.2113C115.03 28.4419 115.227 27.6404 115.227 26.7748C115.227 25.9092 115.062 25.0757 114.701 24.3383C114.372 23.5689 113.846 22.9598 113.155 22.4469C112.465 21.9339 111.61 21.7095 110.558 21.7095H103.948V31.8401H110.558Z" fill="#272736"/>
<path d="M131.405 20.1707C133.312 20.1707 134.989 20.4913 136.403 21.1004C137.817 21.7095 139.001 22.5431 139.954 23.5369C140.908 24.5307 141.598 25.6848 142.091 26.9992C142.585 28.3137 142.815 29.6281 142.815 30.9745C142.815 32.321 142.585 33.6354 142.091 34.9498C141.598 36.2322 140.908 37.3863 139.954 38.4122C139.001 39.406 137.817 40.2395 136.403 40.8486C134.989 41.4577 133.312 41.7783 131.405 41.7783C129.498 41.7783 127.82 41.4577 126.374 40.8486C124.927 40.2395 123.743 39.406 122.789 38.4122C121.836 37.4183 121.112 36.2642 120.652 34.9498C120.192 33.6675 119.929 32.321 119.929 30.9745C119.929 29.6281 120.159 28.3137 120.652 26.9992C121.112 25.7169 121.836 24.5628 122.789 23.5369C123.743 22.5431 124.927 21.7095 126.374 21.1004C127.82 20.4913 129.498 20.1707 131.405 20.1707ZM131.405 21.0363C129.991 21.0363 128.774 21.3248 127.722 21.9019C126.67 22.479 125.782 23.2163 125.091 24.146C124.401 25.0757 123.875 26.1337 123.513 27.3198C123.151 28.506 122.987 29.7242 122.987 30.9745C122.987 32.2248 123.151 33.411 123.513 34.6292C123.875 35.8154 124.401 36.8733 125.091 37.803C125.782 38.7327 126.67 39.4701 127.722 40.0472C128.774 40.6242 129.991 40.9127 131.405 40.9127C132.819 40.9127 134.035 40.6242 135.088 40.0472C136.14 39.4701 136.995 38.7327 137.718 37.803C138.409 36.8733 138.935 35.8154 139.296 34.6292C139.658 33.4431 139.823 32.2248 139.823 30.9745C139.823 29.7242 139.658 28.5381 139.296 27.3198C138.935 26.1337 138.409 25.0757 137.718 24.146C137.028 23.2163 136.14 22.479 135.088 21.9019C134.035 21.3248 132.819 21.0363 131.405 21.0363Z" fill="#272736"/>
<path d="M152.97 37.3221L152.937 37.3542L148.597 28.3777H150.405L153.858 35.2063L156.686 28.3777H157.376L152.049 41.2333H151.359L152.97 37.3221Z" fill="#272736"/>
<path d="M162.276 34.6933L158.429 28.3777H160.237L163.197 33.2186L166.091 28.3777H166.847L163.559 33.8277L168.096 41.2654H166.288L162.671 35.3024L159.054 41.2333H158.297L162.276 34.6933Z" fill="#272736"/>
<path d="M176.81 28.0572C177.994 28.0572 179.046 28.2495 179.934 28.6342C180.821 29.0189 181.578 29.5319 182.17 30.1731C182.762 30.8142 183.222 31.5195 183.518 32.321C183.814 33.1225 183.978 33.956 183.978 34.7895C183.978 35.6231 183.814 36.4566 183.518 37.2581C183.222 38.0595 182.762 38.7969 182.17 39.406C181.578 40.0472 180.854 40.5601 179.934 40.9448C179.046 41.3295 177.994 41.5219 176.81 41.5219C175.626 41.5219 174.574 41.3295 173.686 40.9448C172.798 40.5601 172.042 40.0472 171.45 39.406C170.858 38.7648 170.398 38.0595 170.102 37.2581C169.806 36.4566 169.674 35.6231 169.674 34.7895C169.674 33.956 169.806 33.1225 170.102 32.321C170.398 31.5195 170.858 30.7822 171.45 30.1731C172.042 29.5319 172.798 29.0189 173.686 28.6342C174.541 28.2495 175.593 28.0572 176.81 28.0572ZM176.81 28.6022C175.922 28.6022 175.166 28.7945 174.508 29.1472C173.85 29.4998 173.291 29.9807 172.864 30.5578C172.436 31.1348 172.108 31.8081 171.877 32.5454C171.647 33.2828 171.549 34.0522 171.549 34.8216C171.549 35.591 171.647 36.3604 171.877 37.0978C172.108 37.8351 172.436 38.5083 172.864 39.0854C173.291 39.6624 173.85 40.1433 174.508 40.496C175.166 40.8486 175.922 41.041 176.81 41.041C177.698 41.041 178.454 40.8486 179.112 40.496C179.769 40.1433 180.295 39.6624 180.756 39.0854C181.183 38.5083 181.512 37.8351 181.742 37.0978C181.972 36.3604 182.071 35.591 182.071 34.8216C182.071 34.0522 181.972 33.2828 181.742 32.5454C181.512 31.8081 181.183 31.1348 180.756 30.5578C180.328 29.9807 179.769 29.4998 179.112 29.1472C178.454 28.7625 177.665 28.6022 176.81 28.6022Z" fill="#272736"/>
<path d="M197 42.3233H196.145V41.2333H186.017V42.3233H185.162V40.6242H185.655L190.193 29.7242L189.634 28.4098H191.476L196.539 40.6562H197V42.3233V42.3233ZM186.379 40.6242H194.731L190.555 30.5577L186.379 40.6242Z" fill="#272736"/>
<path d="M49.4951 19.5295L49.528 33.5712C49.528 36.9053 48.41 39.7265 46.3055 41.7462C44.0366 43.8942 40.7155 45.0483 37.1313 44.9842C30.4233 44.8239 26.4116 40.528 26.4116 33.5712V21.1004H23.2549V33.5712C23.2549 36.9374 24.3729 39.7265 26.5431 41.8103C29.0422 44.1827 32.8566 45.4971 37.0984 45.433C43.3461 45.3047 50.0541 42.0989 50.0541 33.5392V19.4974H49.4951V19.5295Z" fill="#272736"/>
<path d="M37.3613 23.5368C37.3613 26.0374 35.5857 27.2236 31.7713 27.2236H26.9376V26.6465H31.015C33.5799 26.6465 33.8429 26.0695 33.8429 23.5368C33.8429 21.3248 33.7114 20.0745 31.015 20.0745H17.2373V26.6145H22.7615V27.1915H17.2373V43.9903H14.0806V19.5295H31.7385C33.8429 19.5295 37.3613 20.0424 37.3613 23.5368Z" fill="#272736"/>
<path d="M45.319 28.0892C45.319 28.0892 34.9281 36.4245 31.7714 42.1309C31.7714 42.1309 40.4195 42.8042 45.5163 36.168C45.5163 36.168 48.0482 33.2827 48.2455 25.5245C48.2455 25.5245 40.9456 24.9154 36.0461 28.4739C34.0074 29.9486 30.1601 32.8659 30.4561 42.163C30.4232 42.163 38.1506 31.2309 45.319 28.0892Z" fill="#272736"/>
<path d="M32.0999 62.2959C14.4749 62.2959 0.138184 48.3183 0.138184 31.1348C0.138184 13.9513 14.4749 -0.0263062 32.0999 -0.0263062C49.7249 -0.0263062 64.0617 13.9513 64.0617 31.1348C64.0617 48.3183 49.7249 62.2959 32.0999 62.2959ZM32.0999 1.57663C15.3628 1.57663 1.78231 14.849 1.78231 31.1348C1.78231 47.4527 15.3956 60.693 32.0999 60.693C48.8371 60.693 62.4176 47.4207 62.4176 31.1348C62.4176 14.8169 48.8371 1.57663 32.0999 1.57663Z" fill="#272736"/>
<path d="M32.2314 8.85397C33.3392 8.85397 34.2372 7.97843 34.2372 6.89839C34.2372 5.81835 33.3392 4.94281 32.2314 4.94281C31.1236 4.94281 30.2256 5.81835 30.2256 6.89839C30.2256 7.97843 31.1236 8.85397 32.2314 8.85397Z" fill="#272736"/>
<path d="M32.2314 57.2948C33.3392 57.2948 34.2372 56.4192 34.2372 55.3392C34.2372 54.2592 33.3392 53.3836 32.2314 53.3836C31.1236 53.3836 30.2256 54.2592 30.2256 55.3392C30.2256 56.4192 31.1236 57.2948 32.2314 57.2948Z" fill="#272736"/>
<path d="M32.1 55.4995C18.3223 55.4995 7.10938 44.5674 7.10938 31.1348C7.10938 17.7022 18.3223 6.77014 32.1 6.77014C45.8778 6.77014 57.0907 17.7022 57.0907 31.1348C57.0907 44.5674 45.8778 55.4995 32.1 55.4995ZM32.1 7.05867C18.4867 7.05867 7.40532 17.8625 7.40532 31.1348C7.40532 44.4071 18.4867 55.2109 32.1 55.2109C45.7134 55.2109 56.7948 44.4071 56.7948 31.1348C56.7619 17.8625 45.7134 7.05867 32.1 7.05867Z" fill="#272736"/>
</g>
<defs>
<clipPath id="clip0_234_36245">
<rect width="197" height="62" fill="white"/>
</clipPath>
</defs>
</svg>
